<svg width="16" height="16" viewBox="0 0 16 16" fill="none" xmlns="http://www.w3.org/2000/svg">
<g id="icons">
<path id="Star 1" d="M6.79107 2.29596C7.37318 1.45701 8.62666 1.45701 9.20877 2.29596L10.5479 4.226C10.7385 4.50065 11.0191 4.702 11.3424 4.79615L13.6146 5.45774C14.6023 5.74531 14.9896 6.92283 14.3617 7.72891L12.9172 9.58333C12.7116 9.84721 12.6044 10.173 12.6137 10.5058L12.6788 12.8448C12.7071 13.8615 11.6931 14.5892 10.7229 14.2484L8.49093 13.4645C8.17333 13.3529 7.82651 13.3529 7.50891 13.4645L5.27696 14.2484C4.30678 14.5892 3.29269 13.8615 3.321 12.8448L3.38613 10.5058C3.39539 10.173 3.28822 9.84721 3.08266 9.58333L1.63812 7.72891C1.01021 6.92283 1.39756 5.74531 2.38523 5.45773L4.65743 4.79615C4.98075 4.702 5.26134 4.50065 5.4519 4.226L6.79107 2.29596Z" fill="#FFDE30"/>
</g>
</svg>
